<svg width="42" height="53" viewBox="0 0 42 53" fill="none" xmlns="http://www.w3.org/2000/svg">
<path d="M4.21852 7.48083H0.63917C0.286348 7.48083 0 7.76718 0 8.12001V52.3608C0 52.7136 0.286348 53 0.63917 53H40.7126C41.0654 53 41.3518 52.7136 41.3518 52.3608V8.12001C41.3518 7.76718 41.0654 7.48083 40.7126 7.48083H37.1332C36.7804 7.48083 36.4941 7.76718 36.4941 8.12001V13.9963H4.85769V8.12001C4.85769 7.76718 4.57135 7.48083 4.21852 7.48083ZM37.1332 15.2746C37.4861 15.2746 37.7724 14.9883 37.7724 14.6355V8.75917H40.0734V51.7216H1.27834V8.75917H3.57935V14.6355C3.57935 14.9883 3.8657 15.2746 4.21852 15.2746H37.1332Z" fill="white"/>
<path d="M27.4086 0H13.9441C13.5913 0 13.3049 0.286348 13.3049 0.63917V4.59589H7.21186C6.85904 4.59589 6.57269 4.88224 6.57269 5.23506V9.93526C6.57269 10.2881 6.85904 10.5744 7.21186 10.5744H17.2555C17.6084 10.5744 17.8947 10.2881 17.8947 9.93526V5.87423H23.456V9.93526C23.456 10.2881 23.7423 10.5744 24.0952 10.5744H34.1409C34.4937 10.5744 34.78 10.2881 34.78 9.93526V5.23506C34.78 4.88224 34.4937 4.59589 34.1409 4.59589H28.0478V0.63917C28.0478 0.286348 27.7604 0 27.4086 0ZM33.5007 5.87423V9.29609H24.7333V5.23506C24.7333 4.88224 24.447 4.59589 24.0941 4.59589H17.2555C16.9027 4.59589 16.6164 4.88224 16.6164 5.23506V9.29609H7.85103V5.87423H13.9441C14.2969 5.87423 14.5833 5.58788 14.5833 5.23506V1.27834H26.7695V5.23506C26.7695 5.58788 27.0558 5.87423 27.4086 5.87423H33.5007Z" fill="white"/>
<path d="M3.57935 30.1351V33.1775C3.57935 33.5304 3.86569 33.8167 4.21852 33.8167H37.1332C37.4861 33.8167 37.7724 33.5304 37.7724 33.1775V30.1351C37.7724 29.7823 37.4861 29.4959 37.1332 29.4959H4.21852C3.86569 29.4959 3.57935 29.7823 3.57935 30.1351ZM4.85769 30.7743H36.4941V32.5384H4.85769V30.7743Z" fill="white"/>
<path d="M37.1332 35.8252H4.21852C3.86569 35.8252 3.57935 36.1116 3.57935 36.4644V39.5109C3.57935 39.8638 3.86569 40.1501 4.21852 40.1501H37.1332C37.4861 40.1501 37.7724 39.8638 37.7724 39.5109V36.4644C37.7724 36.1126 37.485 35.8252 37.1332 35.8252ZM36.4941 38.8718H4.85769V37.1036H36.4941V38.8718Z" fill="white"/>
<path d="M37.1332 42.1576H4.21852C3.86569 42.1576 3.57935 42.444 3.57935 42.7968V45.8433C3.57935 46.1962 3.86569 46.4825 4.21852 46.4825H37.1332C37.4861 46.4825 37.7724 46.1962 37.7724 45.8433V42.7968C37.7724 42.444 37.485 42.1576 37.1332 42.1576ZM36.4941 45.2031H4.85769V43.4349H36.4941V45.2031Z" fill="white"/>
<path d="M20.6764 26.8329C23.4223 26.8329 25.6578 24.5963 25.6578 21.8494C25.6578 19.1045 23.4233 16.87 20.6764 16.87C17.9295 16.87 15.6949 19.1045 15.6949 21.8494C15.6949 24.5973 17.9295 26.8329 20.6764 26.8329ZM20.6764 17.9908C22.8056 17.9908 24.538 19.7212 24.538 21.8494C24.538 23.9796 22.8056 25.712 20.6764 25.712C18.5472 25.712 16.8137 23.9796 16.8137 21.8494C16.8137 19.7212 18.5462 17.9908 20.6764 17.9908Z" fill="white"/>
</svg>
