<svg width="122" height="122" viewBox="0 0 122 122" fill="none" xmlns="http://www.w3.org/2000/svg">
<circle cx="61" cy="61" r="61" fill="#986C3F"/>
<path d="M85.0914 71.8931L76.6123 70.9251C74.576 70.6914 72.573 71.3924 71.1376 72.8278L64.9953 78.9702C55.5482 74.1631 47.8035 66.4519 42.9965 56.9713L49.1722 50.7956C50.6076 49.3602 51.3086 47.3573 51.0749 45.3209L50.1069 36.9086C49.7063 33.537 46.8688 31 43.4638 31H37.6887C33.9165 31 30.7786 34.1379 31.0123 37.9101C32.7815 66.4185 55.5815 89.1851 84.0565 90.9544C87.8287 91.188 90.9666 88.0501 90.9666 84.2779V78.5028C91 75.1312 88.463 72.2937 85.0914 71.8931Z" fill="white"/>
</svg>
