<svg width="50" height="50" viewBox="0 0 50 50" fill="none" xmlns="http://www.w3.org/2000/svg">
<g id="icon/navigation/cancel_24px">
<path id="icon/navigation/cancel_24px_2" fill-rule="evenodd" clip-rule="evenodd" d="M4.16669 25C4.16669 13.4792 13.4792 4.16666 25 4.16666C36.5209 4.16666 45.8334 13.4792 45.8334 25C45.8334 36.5208 36.5209 45.8333 25 45.8333C13.4792 45.8333 4.16669 36.5208 4.16669 25ZM31.0209 33.9583C31.8334 34.7708 33.1459 34.7708 33.9584 33.9583C34.75 33.1458 34.75 31.8125 33.9584 31.0208L27.9375 25L33.9584 18.9792C34.7709 18.1667 34.7709 16.8542 33.9584 16.0417C33.1459 15.2292 31.8334 15.2292 31.0209 16.0417L25 22.0625L18.9792 16.0417C18.1667 15.2292 16.8542 15.2292 16.0417 16.0417C15.6516 16.4309 15.4324 16.9593 15.4324 17.5104C15.4324 18.0615 15.6516 18.5899 16.0417 18.9792L22.0625 25L16.0417 31.0208C15.6516 31.4101 15.4324 31.9385 15.4324 32.4896C15.4324 33.0407 15.6516 33.5691 16.0417 33.9583C16.8542 34.7708 18.1667 34.7708 18.9792 33.9583L25 27.9375L31.0209 33.9583Z" fill="white"/>
</g>
</svg>
