<svg width="39" height="30" viewBox="0 0 39 30" fill="none" xmlns="http://www.w3.org/2000/svg">
<path d="M37.3011 11.1464L36.4558 10.2514L33.489 2.25414C32.9834 0.903315 31.6906 0.00828729 30.2486 0H9.05801C7.61602 0 6.3232 0.903315 5.81768 2.25414L2.89227 10.1519L1.67403 11.279C0.61326 12.1823 0 13.5083 0 14.9006V26.5525C0.00828729 28.4586 1.55801 30 3.46409 30H5.65193C7.55801 30 9.10774 28.4586 9.11602 26.5525V24.8619H29.6685V26.5525C29.6768 28.4586 31.2265 30 33.1326 30H35.3204C37.2265 30 38.7762 28.4586 38.7845 26.5525V14.5939C38.7762 13.2928 38.2459 12.0497 37.3011 11.1464ZM7.37569 2.81768C7.64088 2.11326 8.31216 1.65746 9.05801 1.65746H30.2569C31.0028 1.65746 31.674 2.12155 31.9392 2.81768L34.5249 9.77901H32.5939C32.1381 6.67127 29.2459 4.52486 26.1381 4.98895C23.6602 5.35359 21.7127 7.3011 21.3481 9.77901H4.79006L7.37569 2.81768ZM30.9033 9.77901H23.0221C23.4779 7.59945 25.616 6.20718 27.7956 6.66298C29.3536 6.99447 30.5718 8.21271 30.9033 9.77901ZM7.45856 26.5525C7.45028 27.547 6.64641 28.3425 5.65193 28.3425H3.46409C2.46961 28.3425 1.66575 27.547 1.65746 26.5525V24.3812C2.1547 24.7044 2.80939 24.8619 3.46409 24.8619H7.45856V26.5525ZM37.1271 26.5525C37.1188 27.547 36.3149 28.3425 35.3204 28.3425H33.1326C32.1381 28.3425 31.3343 27.5387 31.326 26.5525V24.8619H35.3204C35.9751 24.8619 36.6298 24.7044 37.1271 24.3812V26.5525ZM35.3204 23.2044H3.46409C2.4779 23.2127 1.66575 22.4254 1.65746 21.4309V14.9006C1.65746 13.989 2.06354 13.1188 2.75967 12.5304C2.76796 12.5221 2.78453 12.5055 2.79282 12.4972L3.91989 11.4365H35.3039L36.0995 12.2901C36.1077 12.3066 36.1326 12.3149 36.1409 12.3315C36.7624 12.9199 37.1188 13.7403 37.1188 14.5939V21.4309H37.1271C37.1188 22.4171 36.3066 23.2127 35.3204 23.2044Z" fill="white"/>
<path d="M10.9392 14.7514H4.72375C4.26795 14.7514 3.89502 15.1243 3.89502 15.5801V19.8895C3.89502 20.3453 4.26795 20.7182 4.72375 20.7182H10.9392C11.395 20.7182 11.7679 20.3453 11.7679 19.8895V15.5801C11.7679 15.1243 11.395 14.7514 10.9392 14.7514ZM10.1105 19.0608H5.55248V16.4088H10.1105V19.0608Z" fill="white"/>
<path d="M34.0608 14.7514H27.8453C27.3895 14.7514 27.0166 15.1243 27.0166 15.5801V19.8895C27.0166 20.3453 27.3895 20.7182 27.8453 20.7182H34.0608C34.5166 20.7182 34.8895 20.3453 34.8895 19.8895V15.5801C34.8895 15.1243 34.5166 14.7514 34.0608 14.7514ZM33.2321 19.0608H28.6741V16.4088H33.2321V19.0608Z" fill="white"/>
<path d="M23.395 18.2321H15.3895C14.9337 18.2321 14.5608 18.605 14.5608 19.0608C14.5608 19.5166 14.9337 19.8895 15.3895 19.8895H23.395C23.8508 19.8895 24.2238 19.5166 24.2238 19.0608C24.2238 18.605 23.8508 18.2321 23.395 18.2321Z" fill="white"/>
<path d="M23.395 15.663H15.3895C14.9337 15.663 14.5608 16.0359 14.5608 16.4917C14.5608 16.9475 14.9337 17.3204 15.3895 17.3204H23.395C23.8508 17.3204 24.2238 16.9475 24.2238 16.4917C24.2238 16.0359 23.8508 15.663 23.395 15.663Z" fill="white"/>
</svg>
