<svg width="53" height="53" viewBox="0 0 53 53" fill="none" xmlns="http://www.w3.org/2000/svg">
<path d="M6.625 15.7344H13.25C13.7073 15.7344 14.0781 15.3636 14.0781 14.9062V12.4219H12.4219V14.0781H7.45312V9.10938H9.9375V7.45312H6.625C6.16767 7.45312 5.79688 7.82392 5.79688 8.28125V14.9062C5.79688 15.3636 6.16767 15.7344 6.625 15.7344Z" fill="white"/>
<path d="M9.9375 11.2509L8.86676 10.1801L7.69574 11.3511L9.35199 13.0074C9.51373 13.1691 9.72562 13.25 9.9375 13.25C10.1494 13.25 10.3613 13.1691 10.523 13.0074L15.4918 8.03863L14.3207 6.86761L9.9375 11.2509Z" fill="white"/>
<path d="M12.4219 24.8438H7.45312V19.875H9.9375V18.2188H6.625C6.16767 18.2188 5.79688 18.5895 5.79688 19.0469V25.6719C5.79688 26.1292 6.16767 26.5 6.625 26.5H13.25C13.7073 26.5 14.0781 26.1292 14.0781 25.6719V23.1875H12.4219V24.8438Z" fill="white"/>
<path d="M9.9375 22.0165L8.86676 20.9457L7.69574 22.1168L9.35199 23.773C9.51373 23.9347 9.72562 24.0156 9.9375 24.0156C10.1494 24.0156 10.3613 23.9347 10.523 23.773L15.4918 18.8043L14.3207 17.6332L9.9375 22.0165Z" fill="white"/>
<path d="M13.25 28.9844H6.625C6.16767 28.9844 5.79688 29.3552 5.79688 29.8125V36.4375C5.79688 36.8948 6.16767 37.2656 6.625 37.2656H13.25C13.7073 37.2656 14.0781 36.8948 14.0781 36.4375V29.8125C14.0781 29.3552 13.7073 28.9844 13.25 28.9844ZM12.4219 35.6094H7.45312V30.6406H12.4219V35.6094Z" fill="white"/>
<path d="M13.25 39.75H6.625C6.16767 39.75 5.79688 40.1208 5.79688 40.5781V47.2031C5.79688 47.6605 6.16767 48.0312 6.625 48.0312H13.25C13.7073 48.0312 14.0781 47.6605 14.0781 47.2031V40.5781C14.0781 40.1208 13.7073 39.75 13.25 39.75ZM12.4219 46.375H7.45312V41.4062H12.4219V46.375Z" fill="white"/>
<path d="M47.7886 4.38324C47.4652 4.05976 46.9411 4.05976 46.6176 4.38324L41.4062 9.59461L33.7105 1.89887C33.5552 1.74359 33.3446 1.65625 33.125 1.65625H2.48438C2.02704 1.65625 1.65625 2.02704 1.65625 2.48438V50.5156C1.65625 50.973 2.02704 51.3438 2.48438 51.3438H41.4062C41.8636 51.3438 42.2344 50.973 42.2344 50.5156V17.7335L51.1011 8.86676C51.4246 8.54328 51.4246 8.01922 51.1011 7.69574L47.7886 4.38324ZM40.5781 49.6875H3.3125V3.3125H32.7821L39.4071 9.9375H33.9531V5.79688H32.2969V10.7656C32.2969 11.223 32.6677 11.5938 33.125 11.5938H39.4071L20.1176 30.8832C20.0266 30.9742 19.9583 31.085 19.9175 31.2067L18.2612 36.1755C18.1621 36.4731 18.2394 36.8014 18.4614 37.023C18.6191 37.1811 18.8309 37.2656 19.0469 37.2656C19.1346 37.2656 19.2228 37.2519 19.3089 37.2232L24.2777 35.5669C24.3994 35.5261 24.5102 35.4577 24.6011 35.3668L40.5781 19.3898V49.6875ZM21.065 33.0017L22.4827 34.4193L20.3562 35.1282L21.065 33.0017ZM24.0156 33.6102L21.8741 31.4688L47.2031 6.13977L49.3446 8.28125L24.0156 33.6102Z" fill="white"/>
<path d="M37.2656 46.375H38.9219V48.0312H37.2656V46.375Z" fill="white"/>
<path d="M33.9531 46.375H35.6094V48.0312H33.9531V46.375Z" fill="white"/>
<path d="M30.6406 46.375H32.2969V48.0312H30.6406V46.375Z" fill="white"/>
</svg>
