<svg width="122" height="122" viewBox="0 0 122 122" fill="none" xmlns="http://www.w3.org/2000/svg">
<circle cx="61" cy="61" r="61" fill="#986C3F"/>
<path fill-rule="evenodd" clip-rule="evenodd" d="M34.0605 87C28.6277 87 25.2409 81.1085 27.9574 76.4164L54.5221 30.519C57.2386 25.827 64.012 25.827 66.7285 30.519L93.2932 76.4164C96.0097 81.1085 92.6229 87 87.19 87H34.0605ZM87.19 79.9445L60.6253 34.0471L34.0605 79.9445H87.19ZM57.0974 51.7212V58.7769C57.0974 60.7172 58.6849 62.3048 60.6253 62.3048C62.5656 62.3048 64.1531 60.7172 64.1531 58.7769V51.7212C64.1531 49.7809 62.5656 48.1934 60.6253 48.1934C58.6849 48.1934 57.0974 49.7809 57.0974 51.7212ZM64.1531 76.4164V69.3606H57.0974V76.4164H64.1531Z" fill="white"/>
</svg>
