<svg width="58" height="58" viewBox="0 0 58 58" fill="none" xmlns="http://www.w3.org/2000/svg">
<path d="M56.1875 35.3438H49.8438C49.6027 35.3438 49.3725 35.4389 49.203 35.6093L42.2186 42.5938H30.8125C30.3123 42.5938 29.9062 42.1868 29.9062 41.6875C29.9062 41.1882 30.3123 40.7812 30.8125 40.7812H35.3438C35.5848 40.7812 35.815 40.6861 35.9845 40.5157L39.6095 36.8907C39.8687 36.6315 39.9466 36.2418 39.8061 35.9029C39.6666 35.5649 39.3349 35.3438 38.9688 35.3438H26.2812C26.0592 35.3438 25.8453 35.4253 25.6795 35.5721L17.7806 42.5938H15.4062V41.6875C15.4062 41.1873 15.0012 40.7812 14.5 40.7812H11.7812V39.875C11.7812 39.3748 11.3762 38.9688 10.875 38.9688H1.8125C1.31134 38.9688 0.90625 39.3748 0.90625 39.875V56.1875C0.90625 56.6877 1.31134 57.0938 1.8125 57.0938H10.875C11.3762 57.0938 11.7812 56.6877 11.7812 56.1875V55.2812H14.5C15.0012 55.2812 15.4062 54.8752 15.4062 54.375V53.4688H39.875C40.1161 53.4688 40.3463 53.3736 40.5157 53.2032L56.8282 36.8907C57.0874 36.6315 57.1653 36.2418 57.0249 35.9029C56.8853 35.5649 56.5536 35.3438 56.1875 35.3438ZM9.96875 55.2812H2.71875V40.7812H9.96875V41.6875V54.375V55.2812ZM13.5938 53.4688H11.7812V42.5938H13.5938V53.4688ZM39.4998 51.6562H15.4062V44.4062H18.125C18.347 44.4062 18.5609 44.3247 18.7267 44.1779L26.6256 37.1562H36.7811L34.9686 38.9688H30.8125C29.3136 38.9688 28.0938 40.1886 28.0938 41.6875C28.0938 43.1864 29.3136 44.4062 30.8125 44.4062H42.5938C42.8348 44.4062 43.065 44.3111 43.2345 44.1407L50.2189 37.1562H53.9998L39.4998 51.6562Z" fill="white"/>
<path d="M32.625 29C37.1227 29 40.7812 25.3406 40.7812 20.8438C40.7812 16.3469 37.1227 12.6875 32.625 12.6875C28.1273 12.6875 24.4688 16.3469 24.4688 20.8438C24.4688 25.3406 28.1273 29 32.625 29ZM32.625 14.5C36.1222 14.5 38.9688 17.3456 38.9688 20.8438C38.9688 24.3419 36.1222 27.1875 32.625 27.1875C29.1278 27.1875 26.2812 24.3419 26.2812 20.8438C26.2812 17.3456 29.1278 14.5 32.625 14.5Z" fill="white"/>
<path d="M30.8125 22.6562H29C29 24.1552 30.2198 25.375 31.7188 25.375V26.2812H33.5312V25.375C35.0302 25.375 36.25 24.1552 36.25 22.6562C36.25 21.1573 35.0302 19.9375 33.5312 19.9375V18.125C34.0315 18.125 34.4375 18.5319 34.4375 19.0312H36.25C36.25 17.5323 35.0302 16.3125 33.5312 16.3125V15.4062H31.7188V16.3125C30.2198 16.3125 29 17.5323 29 19.0312C29 20.5302 30.2198 21.75 31.7188 21.75V23.5625C31.2185 23.5625 30.8125 23.1556 30.8125 22.6562ZM30.8125 19.0312C30.8125 18.5319 31.2185 18.125 31.7188 18.125V19.9375C31.2185 19.9375 30.8125 19.5306 30.8125 19.0312ZM33.5312 21.75C34.0315 21.75 34.4375 22.1569 34.4375 22.6562C34.4375 23.1556 34.0315 23.5625 33.5312 23.5625V21.75Z" fill="white"/>
<path d="M56.1875 9.96875H53.4688V7.25C53.4688 6.74975 53.0637 6.34375 52.5625 6.34375H49.8438V1.8125C49.8438 1.31225 49.4387 0.90625 48.9375 0.90625H1.8125C1.31134 0.90625 0.90625 1.31225 0.90625 1.8125V21.75C0.90625 22.2502 1.31134 22.6562 1.8125 22.6562H4.53125V27.1875C4.53125 27.6877 4.93634 28.0938 5.4375 28.0938H8.15625V30.8125C8.15625 31.3127 8.56134 31.7188 9.0625 31.7188H56.1875C56.6887 31.7188 57.0938 31.3127 57.0938 30.8125V10.875C57.0938 10.3748 56.6887 9.96875 56.1875 9.96875ZM4.53125 7.25V20.8438H2.71875V2.71875H48.0312V6.34375H5.4375C4.93634 6.34375 4.53125 6.74975 4.53125 7.25ZM8.15625 10.875V26.2812H6.34375V8.15625H51.6562V9.96875H9.0625C8.56134 9.96875 8.15625 10.3748 8.15625 10.875ZM55.2812 29.9062H9.96875V11.7812H55.2812V29.9062Z" fill="white"/>
<path d="M53.4688 27.1875V14.5C53.4688 13.9998 53.0637 13.5938 52.5625 13.5938H41.6875V15.4062H51.6562V26.2812H41.6875V28.0938H52.5625C53.0637 28.0938 53.4688 27.6877 53.4688 27.1875Z" fill="white"/>
<path d="M12.6875 28.0938H23.5625V26.2812H13.5938V15.4062H23.5625V13.5938H12.6875C12.1863 13.5938 11.7812 13.9998 11.7812 14.5V27.1875C11.7812 27.6877 12.1863 28.0938 12.6875 28.0938Z" fill="white"/>
<path d="M16.3125 18.125C15.8113 18.125 15.4062 18.531 15.4062 19.0312V22.6562C15.4062 23.1565 15.8113 23.5625 16.3125 23.5625H21.75C22.2512 23.5625 22.6562 23.1565 22.6562 22.6562V19.0312C22.6562 18.531 22.2512 18.125 21.75 18.125H16.3125ZM20.8438 21.75H17.2188V19.9375H20.8438V21.75Z" fill="white"/>
<path d="M48.9375 23.5625C49.4387 23.5625 49.8438 23.1565 49.8438 22.6562V19.0312C49.8438 18.531 49.4387 18.125 48.9375 18.125H43.5C42.9988 18.125 42.5938 18.531 42.5938 19.0312V22.6562C42.5938 23.1565 42.9988 23.5625 43.5 23.5625H48.9375ZM44.4062 19.9375H48.0312V21.75H44.4062V19.9375Z" fill="white"/>
</svg>
