<svg width="60" height="60" viewBox="0 0 60 60" fill="none" xmlns="http://www.w3.org/2000/svg">
<path d="M49.5216 13.8847C50.6126 9.66335 50.1339 6.38139 48.1262 4.37374C46.6484 2.89588 44.5026 2.2469 41.7476 2.44331C39.3093 2.61768 36.5032 3.4503 33.4053 4.91491C32.2765 4.76371 31.1389 4.68772 30 4.68745C23.2867 4.68745 16.8484 7.35429 12.1014 12.1013C7.35436 16.8483 4.68751 23.2867 4.68751 29.9999C4.68779 31.1388 4.76378 32.2764 4.91498 33.4052C3.45013 36.5032 2.6181 39.3092 2.44337 41.7475C2.2465 44.5021 2.89595 46.6483 4.3738 48.1262C5.6808 49.4332 7.52767 50.0924 9.82302 50.0924C11.1954 50.0728 12.5599 49.8808 13.8844 49.5209C18.7403 53.5295 24.9158 55.5844 31.2053 55.2846C37.4949 54.9847 43.4469 52.3515 47.8994 47.8991C52.3518 43.4468 54.9851 37.4948 55.2852 31.2053C55.5852 24.9158 53.5304 18.7402 49.5219 13.8842L49.5216 13.8847ZM41.881 4.31362C44.0687 4.15741 45.7239 4.62346 46.8 5.6996C47.761 6.66053 48.6683 8.54725 47.9827 12.1878C47.9543 12.1591 47.9268 12.1299 47.8983 12.1013C44.7881 8.97655 40.9115 6.7237 36.6567 5.56835C38.5712 4.85151 40.3446 4.42342 41.8813 4.31362H41.881ZM26.0489 6.89725L25.3348 10.109C25.2845 10.3354 25.3199 10.5725 25.4342 10.7743C25.5484 10.9761 25.7335 11.1284 25.9535 11.2018L31.1338 12.9287L31.9232 15.2958C31.9891 15.4936 32.119 15.6637 32.2924 15.7794L34.5553 17.2879L33.8617 20.0624L28.1066 24.1733L25.8543 22.6716L22.125 19.8749C21.9445 19.7395 21.7212 19.6738 21.4961 19.6898C21.2709 19.7058 21.0592 19.8024 20.8996 19.962L18.0871 22.7745C18 22.8616 17.931 22.9649 17.8839 23.0787C17.8368 23.1924 17.8125 23.3143 17.8125 23.4374V27.7366L16.3477 29.2014L11.8389 31.0049C11.6628 31.0754 11.5122 31.1976 11.407 31.3553L9.53205 34.1678C9.42956 34.3217 9.37492 34.5025 9.37501 34.6874V38.9062L8.57814 39.5039C7.24598 36.5127 6.55918 33.2744 6.56251 29.9999C6.56251 18.423 15 8.78104 26.0488 6.89725H26.0489ZM5.69966 46.8003C4.62353 45.7243 4.15724 44.0692 4.31369 41.8812C4.42349 40.3446 4.85158 38.5712 5.56841 36.657C6.72377 40.9118 8.97662 44.7883 12.1014 47.8986C12.13 47.9272 12.1593 47.9547 12.188 47.9831C8.5472 48.6685 6.66072 47.7612 5.69966 46.8003V46.8003ZM17.5664 44.3463L16.1268 42.1875L17.6033 39.9726L19.3051 38.2708L22.4324 36.7071L24.7922 38.2803C24.9463 38.383 25.1274 38.4376 25.3125 38.4374H26.7993L28.0526 39.6914C25.0329 42.0769 21.9873 44.0507 19.1017 45.4987L17.5664 44.3463ZM29.3862 41.024L30.2751 41.9129C30.3896 42.0273 30.5319 42.1101 30.6879 42.1533C30.844 42.1964 31.0086 42.1984 31.1657 42.159L34.0735 41.4324L34.6368 43.125L33.9463 45.1962L31.5791 45.9856C31.3924 46.0477 31.2299 46.1671 31.1147 46.3267C30.9996 46.4863 30.9376 46.6781 30.9375 46.875V49.1858L28.5424 50.7824C28.3485 50.9118 28.2096 51.1087 28.153 51.3349L27.6563 53.3203C26.4715 53.2024 25.2974 52.9939 24.1445 52.6966L23.4283 47.6796C23.3963 47.4562 23.2848 47.2518 23.1143 47.104C22.9438 46.9562 22.7257 46.8749 22.5 46.875H20.9376L20.7654 46.746C23.5735 45.2578 26.4976 43.319 29.3857 41.024H29.3862ZM20.0625 48.5624C20.2248 48.6842 20.4222 48.75 20.625 48.75H21.6869L22.1635 52.0884C19.986 51.3127 17.9354 50.2188 16.0785 48.8423C16.9926 48.5151 17.9292 48.1281 18.8883 47.6813L20.0625 48.5624ZM29.5612 53.4318L29.884 52.1415L32.3951 50.4675C32.5235 50.3818 32.6288 50.2658 32.7016 50.1298C32.7744 49.9937 32.8125 49.8418 32.8125 49.6875V47.5507L34.984 46.8268C35.1221 46.7808 35.2475 46.7032 35.3504 46.6003C35.4533 46.4974 35.5308 46.372 35.5769 46.2339L36.5144 43.4214C36.5786 43.229 36.5786 43.0209 36.5144 42.8285L35.5769 40.016C35.5022 39.7919 35.3457 39.6043 35.1386 39.4907C34.9316 39.377 34.6893 39.3457 34.4602 39.403L31.2251 40.2116L30.8448 39.8313C31.7198 39.0958 32.5881 38.3302 33.4496 37.5344L32.1755 36.1586C31.2967 36.9724 30.4096 37.7533 29.5143 38.5013L27.8502 36.8373C27.6745 36.6614 27.4361 36.5626 27.1875 36.5624H25.5963L23.0201 34.8449C22.8826 34.7532 22.7233 34.6995 22.5583 34.6892C22.3933 34.6789 22.2286 34.7124 22.0807 34.7864L18.3307 36.6614C18.2406 36.7064 18.1583 36.7658 18.0871 36.8371L16.2121 38.7121C16.1684 38.7558 16.1292 38.8037 16.0949 38.855L14.2199 41.6675C14.1172 41.8215 14.0624 42.0025 14.0624 42.1876C14.0624 42.3727 14.1172 42.5536 14.2199 42.7076L16.0949 45.5201C16.1539 45.6085 16.2275 45.6862 16.3125 45.7499L17.175 46.3968C16.2561 46.7949 15.3164 47.1431 14.3599 47.4398C12.3744 45.6584 10.7054 43.5531 9.424 41.2135L10.875 40.1249C10.9914 40.0376 11.086 39.9244 11.151 39.7942C11.2161 39.664 11.25 39.5205 11.25 39.3749V34.9713L12.806 32.6373L17.2232 30.8704C17.3411 30.8232 17.4481 30.7526 17.5379 30.6629L19.4129 28.7879C19.5 28.7008 19.5691 28.5975 19.6162 28.4837C19.6633 28.37 19.6875 28.2481 19.6875 28.1249V23.8257L21.6504 21.8628L24.75 24.1874C24.7638 24.1978 24.778 24.2078 24.7924 24.2174L27.6049 26.0924C27.7632 26.198 27.9499 26.2529 28.1401 26.2498C28.3303 26.2468 28.5151 26.1859 28.6699 26.0753L35.2324 21.3878C35.4137 21.2583 35.543 21.0685 35.597 20.8523L36.5345 17.1023C36.5815 16.9147 36.5693 16.7171 36.4996 16.5366C36.4299 16.3562 36.306 16.2018 36.1451 16.0945L33.6003 14.3978L32.7644 11.89C32.7183 11.752 32.6408 11.6265 32.5379 11.5236C32.435 11.4207 32.3096 11.3432 32.1715 11.2972L27.3487 9.69042L28.0253 6.64647C28.6766 6.59186 29.3349 6.56245 30 6.56245C33.292 6.56134 36.5471 7.25531 39.5524 8.59896C42.5576 9.9426 45.2453 11.9056 47.4396 14.3596C46.7182 16.7176 45.5256 19.2908 43.8889 22.0175L45.4964 22.9824C46.9473 20.5648 48.0678 18.2508 48.8428 16.0789C51.0996 19.1196 52.5819 22.6641 53.1618 26.4062L50.1345 28.2633C49.9253 28.3917 49.7747 28.597 49.7152 28.8351L47.9649 35.8359L42.8285 37.5481C42.6419 37.6103 42.4795 37.7297 42.3645 37.8893C42.2494 38.0489 42.1875 38.2407 42.1875 38.4374V43.6741L40.5871 45.2745C40.4417 45.4199 40.3481 45.6092 40.3208 45.813C40.2935 46.0168 40.334 46.224 40.436 46.4026L42.4165 49.8691C38.6968 52.2053 34.3925 53.4423 30 53.4375C29.8533 53.4375 29.7071 53.4345 29.5612 53.4318V53.4318ZM43.9697 48.8076L42.4193 46.094L43.788 44.7254C43.875 44.6383 43.9441 44.535 43.9912 44.4212C44.0383 44.3075 44.0625 44.1856 44.0625 44.0625V39.1132L49.0465 37.4518C49.1961 37.4019 49.3307 37.3151 49.4379 37.1994C49.545 37.0837 49.6213 36.9428 49.6595 36.7898L51.4417 29.6613L53.3862 28.4684C53.419 28.9749 53.4375 29.4853 53.4375 29.9999C53.4373 33.6564 52.5808 37.262 50.9367 40.5279C49.2926 43.7939 46.9066 46.6295 43.9697 48.8076V48.8076Z" fill="white"/>
<path d="M46.875 33.75V26.25C46.875 26.0463 46.8087 25.8481 46.6861 25.6855C46.5634 25.5229 46.3912 25.4046 46.1953 25.3486L39.6328 23.4736C39.4643 23.4253 39.2857 23.4253 39.1172 23.4736L32.5547 25.3486C32.3588 25.4046 32.1866 25.5229 32.0639 25.6855C31.9413 25.8481 31.875 26.0463 31.875 26.25V33.75C31.875 33.9537 31.9413 34.1518 32.0639 34.3144C32.1866 34.4771 32.3588 34.5954 32.5547 34.6514L39.1172 36.5264C39.2857 36.5746 39.4643 36.5746 39.6328 36.5264L46.1953 34.6514C46.3912 34.5954 46.5634 34.4771 46.6861 34.3144C46.8087 34.1518 46.875 33.9537 46.875 33.75V33.75ZM39.375 25.35L42.5249 26.25L39.375 27.15L36.2251 26.25L39.375 25.35ZM33.75 27.4929L38.4375 28.8322V34.3821L33.75 33.0429V27.4929ZM40.3125 34.3821V28.8322L45 27.4929V33.0429L40.3125 34.3821Z" fill="white"/>
<path d="M29.0625 17.8125H30.9375V19.6875H29.0625V17.8125Z" fill="white"/>
<path d="M16.875 14.0625H18.75V15.9375H16.875V14.0625Z" fill="white"/>
<path d="M12.1875 25.3125H14.0625V27.1875H12.1875V25.3125Z" fill="white"/>
<path d="M20.625 39.375H22.5V41.25H20.625V39.375Z" fill="white"/>
<path d="M26.25 45.9375H28.125V47.8125H26.25V45.9375Z" fill="white"/>
<path d="M45.9375 40.3125H47.8125V42.1875H45.9375V40.3125Z" fill="white"/>
</svg>
