<svg width="53" height="53" viewBox="0 0 53 53" fill="none" xmlns="http://www.w3.org/2000/svg">
<path d="M52.8241 25.012L51.5585 20.6149C51.4575 20.2858 51.026 19.9053 50.4973 20.1038C48.8693 20.5725 47.1641 19.6292 46.6955 18.0015C46.227 16.3738 47.1702 14.6684 48.7984 14.1998C49.1451 14.1231 49.5603 13.7629 49.425 13.2027L48.3274 9.38917C47.9984 8.24605 47.2441 7.29951 46.2032 6.72396C45.1624 6.14831 43.9597 6.0127 42.8166 6.34157L3.22334 17.7377C2.08021 18.0668 1.13367 18.8211 0.55812 19.8619C-0.0174272 20.9028 -0.15324 22.1055 0.175836 23.2486C0.793514 24.9495 1.59421 28.2957 1.31223 30.0924C1.31223 30.52 1.65363 30.8694 2.08104 30.8793C3.38151 30.9095 4.51594 31.768 4.92048 32.9747C4.63239 33.2065 4.29897 33.3896 3.92807 33.5057C3.52001 33.6335 3.28865 34.0637 3.40697 34.4745L3.94205 36.3334C3.41639 36.7619 2.76952 37.0028 2.08104 37.0188C1.65352 37.0288 1.31223 37.3781 1.31223 37.8058V42.3813C1.31223 44.8367 3.30988 46.8344 5.76527 46.8344H15.7314C16.1662 46.8344 16.5186 46.482 16.5186 46.0473C16.5186 45.6126 16.1662 45.2601 15.7314 45.2601H5.76527C4.17785 45.2601 2.88639 43.9687 2.88639 42.3813V38.5115C3.42467 38.4092 3.93635 38.2132 4.40207 37.9319L4.67266 38.8717C5.00163 40.0148 5.75595 40.9613 6.7968 41.5369C7.73745 42.0276 8.8903 42.2999 10.1834 41.9191L46.6408 31.4257C46.1687 32.1527 45.8941 33.0195 45.8941 33.9491C45.8941 36.2744 47.6115 38.2063 49.8445 38.5431V42.3813C49.8445 43.9688 48.553 45.2601 46.9657 45.2601H19.5044C19.0696 45.2601 18.7172 45.6125 18.7172 46.0473C18.7172 46.4819 19.0696 46.8344 19.5044 46.8344H46.9658C49.4212 46.8344 51.4188 44.8367 51.4188 42.3813V37.8058C51.4122 37.4617 51.104 36.9763 50.5402 37.0209C48.8464 37.0209 47.4684 35.6429 47.4684 33.9492C47.4684 32.2555 48.8464 30.8775 50.5402 30.8775C50.8948 30.9003 51.3935 30.6684 51.4188 30.0926V29.647C51.8276 29.3014 52.175 28.8815 52.4419 28.399C53.0175 27.3578 53.1532 26.1552 52.8241 25.012V25.012ZM2.88639 29.3883V27.5092C4.96561 27.4311 6.55892 29.4902 5.93855 31.4774C5.25949 30.4048 4.15529 29.6346 2.88639 29.3883V29.3883ZM28.2601 30.2564L31.0859 29.443L32.3674 33.8958L29.5418 34.7091L28.2601 30.2564ZM51.0642 27.6369C50.6774 28.3367 50.0737 28.7565 49.3412 29.0101L37.568 32.3988L37.4809 32.0963C37.3606 31.6785 36.9238 31.4375 36.5069 31.5576C36.0892 31.6778 35.8479 32.114 35.9682 32.5316L36.0553 32.8341L33.8802 33.4602L32.381 28.2512C32.3233 28.0505 32.1882 27.8811 32.0055 27.7801C31.8227 27.679 31.6075 27.6547 31.4069 27.7125L27.0684 28.9612C26.8676 29.0189 26.6983 29.154 26.5973 29.3367C26.4962 29.5194 26.4719 29.7347 26.5298 29.9354L28.0291 35.1444L9.74803 40.4063C9.00882 40.6191 8.23132 40.5312 7.55847 40.1592C6.88562 39.7871 6.39806 39.1752 6.18523 38.4361L5.11477 34.717C7.00476 33.7603 8.0277 31.5448 7.52048 29.4824C6.96211 27.2123 4.87224 25.8211 2.59096 25.9488L1.68851 22.8132C1.47589 22.0742 1.56357 21.2966 1.93571 20.6237C2.30774 19.9509 2.91973 19.4632 3.65872 19.2505L29.966 11.6784L30.0531 11.981C30.1524 12.326 30.4672 12.5505 30.8091 12.5505C30.8813 12.5505 30.9545 12.5405 31.0273 12.5196C31.445 12.3993 31.6862 11.9632 31.5659 11.5455L31.4789 11.243L43.2519 7.85435C43.991 7.64162 44.7685 7.72941 45.4415 8.10154C46.1143 8.47358 46.6019 9.08556 46.8147 9.82456L47.7083 12.9295C45.6556 13.8708 44.5396 16.2023 45.1829 18.437C45.8261 20.6714 48.0093 22.0534 50.2498 21.759L51.3114 25.4474C51.524 26.1865 51.4364 26.9641 51.0642 27.6369V27.6369Z" fill="white"/>
<path d="M33.1889 17.1851L32.6112 15.1779C32.4909 14.7601 32.054 14.519 31.6371 14.6392C31.2194 14.7595 30.9781 15.1956 31.0984 15.6133L31.6761 17.6205C31.7916 17.9227 32.1522 18.3021 32.6501 18.1592C33.068 18.0389 33.3092 17.6028 33.1889 17.1851V17.1851Z" fill="white"/>
<path d="M34.8123 22.8246L34.2344 20.8173C34.1141 20.3995 33.6775 20.1586 33.2603 20.2786C32.8426 20.3989 32.6014 20.835 32.7217 21.2528L33.2995 23.2601C33.415 23.5622 33.7756 23.9415 34.2736 23.7988C34.6913 23.6785 34.9325 23.2424 34.8123 22.8246V22.8246Z" fill="white"/>
<path d="M35.8577 26.4568C35.7374 26.0389 35.3004 25.798 34.8836 25.9181C34.4659 26.0383 34.2246 26.4745 34.3449 26.8922L34.9226 28.8995C35.038 29.2016 35.3987 29.581 35.8967 29.4382C36.3144 29.318 36.5557 28.8818 36.4354 28.4641L35.8577 26.4568Z" fill="white"/>
<path d="M44.253 14.0209C44.354 13.8382 44.3784 13.6229 44.3205 13.4223L43.4397 10.3623C43.3195 9.94464 42.8829 9.70345 42.4656 9.82363L34.5479 12.1025C34.1302 12.2228 33.8889 12.6589 34.0092 13.0766L34.8899 16.1365C35.0501 16.4378 35.2178 16.7979 35.864 16.6752L43.7818 14.3962C43.9825 14.3386 44.152 14.2036 44.253 14.0209V14.0209ZM36.185 14.9449L35.7397 13.3977L42.1447 11.5542L42.59 13.1014L36.185 14.9449Z" fill="white"/>
<path d="M43.0139 26.0099L47.244 24.7923C47.6617 24.672 47.903 24.2359 47.7827 23.8181C47.6624 23.4002 47.2256 23.1592 46.8087 23.2794L42.5787 24.497C42.161 24.6173 41.9197 25.0534 42.04 25.4711C42.1392 25.8161 42.454 26.0406 42.7959 26.0406C42.868 26.0408 42.9413 26.0308 43.0139 26.0099Z" fill="white"/>
<path d="M47.589 25.9911L43.3589 27.2086C42.9412 27.3288 42.6999 27.765 42.8202 28.1826C42.9195 28.5278 43.2343 28.7523 43.5762 28.7523C43.6483 28.7523 43.7216 28.7423 43.7943 28.7214L48.0244 27.504C48.4421 27.3837 48.6834 26.9476 48.5631 26.5299C48.4427 26.1119 48.006 25.8709 47.589 25.9911V25.9911Z" fill="white"/>
<path d="M15.0635 34.1785L9.09806 35.8955C8.68038 36.0158 8.43908 36.4519 8.55937 36.8696C8.65864 37.2146 8.97343 37.4391 9.31534 37.4391C9.38749 37.4391 9.46078 37.4291 9.53345 37.4083L15.4989 35.6913C15.9165 35.571 16.1578 35.1349 16.0375 34.7172C15.9173 34.2993 15.4804 34.0583 15.0635 34.1785V34.1785Z" fill="white"/>
<path d="M45.4398 43.561C45.8746 43.561 46.227 43.2087 46.227 42.7739V39.7265C46.227 39.2919 45.8746 38.9394 45.4398 38.9394H36.7492C36.3144 38.9394 35.962 39.2918 35.962 39.7265V42.7739C35.962 43.2086 36.3144 43.561 36.7492 43.561H45.4398ZM37.5362 40.5138H44.6527V41.987H37.5362V40.5138Z" fill="white"/>
<path d="M32.8953 41.8796C33.33 41.8796 33.6824 41.5273 33.6824 41.0925C33.6824 40.6577 33.33 40.3054 32.8953 40.3054H24.5277C24.0929 40.3054 23.7405 40.6577 23.7405 41.0925C23.7405 41.5273 24.0929 41.8796 24.5277 41.8796H32.8953Z" fill="white"/>
<path d="M24.5429 21.8192C24.2318 21.9088 23.4372 22.1702 22.382 22.5254L17.8837 18.2668C17.6814 18.0753 17.393 18.0048 17.125 18.0819L14.7388 18.7687C14.3611 18.8858 13.9715 19.3993 14.3148 19.981L17.3439 24.2446C14.7266 25.1448 12.2336 26.0092 11.4656 26.2758L8.86246 25.5999C8.32366 25.4499 7.62969 26.0552 7.98506 26.759L9.97701 30.167C10.2201 30.4123 10.3573 30.6473 10.912 30.5143L12.3394 30.0246C12.7704 29.9253 15.6042 29.2724 18.5905 28.5756L18.2916 33.7971C18.3544 34.1766 18.4613 34.7154 19.2951 34.5985L21.6812 33.9117C21.9491 33.8346 22.1561 33.6217 22.2257 33.3518L23.7717 27.3534C24.8539 27.0933 25.6661 26.8923 25.9771 26.8028C27.7551 26.291 28.4392 24.0617 28.5114 23.8092C28.5941 23.5199 28.5045 23.2086 28.2806 23.0075C28.0853 22.8319 26.3195 21.3078 24.5429 21.8192V21.8192ZM16.2412 19.9744L17.1281 19.7191L20.6956 23.0967C20.1208 23.2925 19.5141 23.4998 18.8962 23.7116L16.2412 19.9744ZM20.8136 32.5234L19.9267 32.7786L20.1886 28.2018C20.8245 28.0526 21.4487 27.9057 22.0397 27.766L20.8136 32.5234ZM25.5418 25.2901C22.713 26.04 12.4137 28.376 11.8675 28.5223L11.0109 28.8162L10.2998 27.5995L11.3008 27.8595C12.0453 27.8869 12.2733 27.6031 13.7113 27.1639C16.1764 26.3098 20.3848 24.8608 22.4383 24.1677C23.689 23.7448 24.6429 23.4287 24.9783 23.3321C25.5633 23.1636 26.3205 23.5382 26.8135 23.8657C26.5719 24.4043 26.1321 25.1201 25.5418 25.2901V25.2901Z" fill="white"/>
</svg>
