<svg width="31" height="53" viewBox="0 0 31 53" fill="none" xmlns="http://www.w3.org/2000/svg">
<path d="M22.1466 29.2541C22.6109 28.8113 23.0362 28.322 23.4133 27.7888C23.6612 27.4383 23.5779 26.9533 23.2274 26.7054C22.8769 26.4577 22.3919 26.5408 22.144 26.8914C20.5545 29.139 17.9647 30.481 15.2161 30.481C10.5409 30.481 6.73735 26.6775 6.73735 22.0023V17.7708V16.9039C9.46274 18.0266 12.3267 18.6446 15.2161 18.6446C18.1809 18.6446 21.0503 17.9935 23.695 16.9039V17.7708V22.0023C23.695 22.7826 23.5889 23.5561 23.3795 24.3012C23.2635 24.7144 23.5044 25.1436 23.9176 25.2597C24.3309 25.3759 24.76 25.1349 24.8761 24.7216C25.0165 24.2216 25.1163 23.7107 25.1776 23.1941H25.2396C26.8287 23.1941 28.1216 21.9012 28.1216 20.3122V19.8756C28.1216 18.2898 26.8341 16.9992 25.2494 16.9939V16.2052C25.2636 16.1982 25.2777 16.1919 25.2919 16.185C25.292 16.185 25.292 16.185 25.2921 16.1848C25.8469 15.9126 26.2052 15.3382 26.2052 14.7215V13.7353H26.9689C27.3982 13.7353 27.7461 13.3874 27.7461 12.9581C27.7461 12.5288 27.3982 12.1809 26.9689 12.1809H26.9541V11.1904C26.9541 9.63777 27.3929 8.12362 28.2234 6.81165C28.5832 6.24334 28.5794 5.54041 28.2133 4.97739C27.8486 4.41643 27.2111 4.12886 26.5475 4.22627L25.6428 4.35975C22.3354 4.84764 19.0116 3.50676 16.9683 0.860654C16.5459 0.313587 15.9073 0 15.2161 0C14.525 0 13.8864 0.313587 13.464 0.860654C12.6125 1.96349 11.5012 2.8742 10.25 3.49443C9.86544 3.68511 9.70813 4.15145 9.89881 4.53602C10.0896 4.9206 10.5559 5.0777 10.9404 4.88723C12.4015 4.16285 13.6996 3.09908 14.6944 1.81074C14.8201 1.64794 15.0104 1.55446 15.2161 1.55446C15.4219 1.55446 15.6122 1.64783 15.7379 1.81074C18.1243 4.90111 22.0062 6.46708 25.8697 5.89763L26.7744 5.76415C26.796 5.76073 26.8622 5.7512 26.9101 5.82467C26.96 5.90146 26.9225 5.96084 26.9101 5.98033C25.922 7.54132 25.3997 9.34294 25.3997 11.1904V12.1809H5.03273V11.1904C5.03273 9.34294 4.51043 7.54132 3.52231 5.98043C3.50997 5.96095 3.47246 5.90146 3.52231 5.82467C3.57018 5.75109 3.63641 5.76094 3.65796 5.76415L4.56276 5.89763C5.5516 6.04344 6.55724 6.0508 7.55209 5.9196C7.9776 5.86343 8.27709 5.47295 8.22093 5.04734C8.16476 4.62173 7.77386 4.32172 7.34867 4.3785C6.49703 4.49094 5.63586 4.48462 4.78971 4.35975L3.88481 4.22627C3.22157 4.12865 2.58372 4.41643 2.21915 4.97739C1.85313 5.54052 1.84929 6.24334 2.20899 6.81176C3.03949 8.12362 3.47837 9.63777 3.47837 11.1904V12.1809H3.46355C3.03421 12.1809 2.68632 12.5288 2.68632 12.9581C2.68632 13.3874 3.03421 13.7353 3.46355 13.7353H4.2272V14.7215C4.2272 15.3382 4.58556 15.9126 5.1404 16.185C5.1546 16.1919 5.16869 16.1982 5.18289 16.2052V16.9939C3.59837 16.9993 2.31076 18.2898 2.31076 19.8756V20.3122C2.31076 21.9012 3.60366 23.1941 5.19273 23.1941H5.25398C5.53585 25.5647 6.64678 27.6843 8.2887 29.2536C3.46168 30.5081 0 34.8874 0 39.9819V50.1708C0 51.7308 1.26917 53 2.82933 53H5.26123C5.69057 53 6.03846 52.6521 6.03846 52.2228C6.03846 51.7934 5.69057 51.4455 5.26123 51.4455H2.82933C2.1264 51.4455 1.55446 50.8736 1.55446 50.1708V39.9818C1.55446 38.0538 2.13345 36.1937 3.20416 34.6222H9.00552L11.1248 39.5931C11.2171 39.8095 11.4024 39.9725 11.6287 40.0363C12.0708 40.1607 12.3535 39.8635 12.4092 39.837L12.8918 40.3196L10.5434 51.4454H8.36871C7.93936 51.4454 7.59147 51.7933 7.59147 52.2227C7.59147 52.652 7.93936 52.9999 8.36871 52.9999H27.6031C29.1633 52.9999 30.4324 51.7307 30.4324 50.1707V39.9818C30.4324 34.914 26.9958 30.5157 22.1466 29.2541V29.2541ZM26.5672 19.8755V20.3121C26.5672 21.0408 25.977 21.6343 25.2495 21.6396V18.548C25.9769 18.5532 26.5672 19.1467 26.5672 19.8755ZM24.6508 13.7352C24.6346 14.7275 24.6865 14.75 24.6074 14.7893C21.7054 16.2127 18.5267 17.0956 15.2161 17.0956C11.9072 17.0956 8.72343 16.2113 5.82509 14.7894C5.79866 14.7763 5.78156 14.7497 5.78156 14.7214V13.7352H24.6508ZM3.86522 20.3121V19.8755C3.86522 19.1467 4.4554 18.5532 5.18289 18.5479V21.6395C4.4554 21.6343 3.86522 21.0408 3.86522 20.3121ZM18.2562 38.0954L16.1665 36.6097L18.1968 31.5804C18.9012 31.3606 19.5782 31.0634 20.2162 30.6966L20.409 30.8546C20.8167 31.1887 20.9569 31.7605 20.7503 32.2452L18.2562 38.0954ZM22.1804 32.855C22.4493 32.2241 22.4628 31.5294 22.2545 30.9055C23.6109 31.3394 24.8573 32.0754 25.9031 33.0678H22.0897L22.1804 32.855ZM16.3638 31.9685L15.2162 34.8112L14.069 31.9695C14.4456 32.0126 14.8282 32.0355 15.2162 32.0355C15.6019 32.0355 15.9849 32.0124 16.3638 31.9685V31.9685ZM4.52929 33.0678C5.57513 32.0754 6.8215 31.3394 8.17792 30.9055C7.96962 31.5294 7.98309 32.2241 8.25202 32.855L8.34269 33.0678H4.52929ZM9.68202 32.2453C9.47538 31.7606 9.61559 31.1888 10.0233 30.8547L10.2149 30.6977C10.8487 31.0636 11.5259 31.3624 12.2369 31.584L14.2659 36.6098L12.1762 38.0955L9.68202 32.2453ZM15.2162 37.8413L16.7383 38.9234L15.2162 40.4455L13.6942 38.9234L15.2162 37.8413ZM12.1321 51.4454L14.2035 41.6314C14.5582 41.9323 14.7317 42.322 15.2162 42.322C15.7006 42.322 15.8717 41.9344 16.2289 41.6312L18.3004 51.4454H12.1321ZM28.878 50.1707C28.878 50.8735 28.306 51.4454 27.6031 51.4454H19.8889L17.5405 40.3195L18.0231 39.837C18.0789 39.8636 18.361 40.1609 18.8035 40.0364C19.0299 39.9726 19.2152 39.8096 19.3075 39.5932L21.4267 34.6223H27.2281C28.2988 36.1939 28.8779 38.054 28.8779 39.9819V50.1707H28.878Z" fill="white"/>
<path d="M18.6512 20.8601V21.8C18.6512 22.2293 18.9991 22.5772 19.4285 22.5772C19.8578 22.5772 20.2057 22.2293 20.2057 21.8V20.8601C20.2057 20.4308 19.8578 20.0829 19.4285 20.0829C18.9991 20.0829 18.6512 20.4308 18.6512 20.8601Z" fill="white"/>
<path d="M10.2267 20.8601V21.8C10.2267 22.2293 10.5746 22.5772 11.0039 22.5772C11.4333 22.5772 11.7811 22.2293 11.7811 21.8V20.8601C11.7811 20.4308 11.4333 20.0829 11.0039 20.0829C10.5746 20.0829 10.2267 20.4308 10.2267 20.8601Z" fill="white"/>
<path d="M16.4957 24.9123C15.6108 25.5838 14.8216 25.5838 13.9367 24.9123C13.5948 24.6529 13.1072 24.7198 12.8477 25.0615C12.5882 25.4035 12.655 25.891 12.9969 26.1506C13.7228 26.7015 14.4695 26.977 15.2161 26.977C15.9628 26.977 16.7095 26.7016 17.4354 26.1506C17.7774 25.891 17.8441 25.4035 17.5846 25.0615C17.3251 24.7196 16.8376 24.6527 16.4957 24.9123V24.9123Z" fill="white"/>
<path d="M14.7594 10.8715C14.8956 10.9704 15.0559 11.0199 15.2162 11.0199C15.3765 11.0199 15.5369 10.9704 15.673 10.8714L16.6921 10.131C17.8267 9.30667 18.2978 7.85667 17.8644 6.52305L17.4751 5.32487C17.371 5.00455 17.0726 4.78775 16.7359 4.78775H13.6963C13.3596 4.78775 13.0611 5.00455 12.9571 5.32487L12.5677 6.52305C12.1343 7.85667 12.6055 9.30667 13.74 10.1311L14.7594 10.8715ZM14.0462 7.00338L14.2611 6.34232H16.1713L16.3861 7.00338C16.6107 7.6947 16.3666 8.44623 15.7785 8.8735L15.2162 9.28191L14.6538 8.8735C14.0658 8.44623 13.8217 7.6947 14.0462 7.00338Z" fill="white"/>
<path d="M26.4544 39.3318L25.4916 39.1918L25.0613 38.3197C24.8805 37.9534 24.5146 37.726 24.1063 37.726C24.1062 37.726 24.1061 37.726 24.1061 37.726C23.6978 37.7261 23.3319 37.9536 23.1513 38.3197L22.7209 39.1919L21.7582 39.3318C21.3542 39.3905 21.0247 39.6683 20.8985 40.0567C20.7724 40.445 20.8757 40.8633 21.1681 41.1483L21.8647 41.8272L21.7003 42.7857C21.6312 43.1882 21.7934 43.5874 22.1238 43.8275C22.4546 44.0678 22.8846 44.0984 23.2454 43.9086L24.1064 43.4559L24.9673 43.9085C25.3286 44.0986 25.7584 44.0675 26.0888 43.8276C26.4191 43.5877 26.5815 43.1886 26.5125 42.7858L26.348 41.8273L27.0446 41.1483C27.337 40.8633 27.4403 40.445 27.3143 40.0567C27.1879 39.6683 26.8584 39.3905 26.4544 39.3318V39.3318ZM25.0787 40.8937C24.8276 41.1382 24.7132 41.4907 24.7723 41.8365L24.8125 42.0711L24.6017 41.9602C24.2915 41.7972 23.9211 41.7972 23.6107 41.9603L23.3999 42.0712L23.4402 41.837C23.4996 41.4912 23.3852 41.1386 23.134 40.8937L22.9635 40.7274L23.1988 40.6932C23.546 40.6431 23.8458 40.4251 24.001 40.1106L24.1065 39.897L24.2119 40.1105C24.3671 40.4251 24.6671 40.643 25.0137 40.6931L25.2494 40.7274L25.0787 40.8937Z" fill="white"/>
<path d="M10.8042 43.0277V41.5998C10.8042 40.8617 10.2036 40.2612 9.46546 40.2612H4.01676C3.2787 40.2612 2.67816 40.8617 2.67816 41.5998V43.0277C2.67816 43.7658 3.2787 44.3663 4.01676 44.3663H9.46546C10.2036 44.3663 10.8042 43.7658 10.8042 43.0277ZM9.2497 42.8118H4.23262V41.8156H9.2497V42.8118Z" fill="white"/>
</svg>
